<?xml version="1.0" standalone="no"?>
<!DOCTYPE svg PUBLIC "-//W3C//DTD SVG 20010904//EN"
 "http://www.w3.org/TR/2001/REC-SVG-20010904/DTD/svg10.dtd">
<svg version="1.0" xmlns="http://www.w3.org/2000/svg"
 width="180.000000pt" height="180.000000pt" viewBox="0 0 180.000000 180.000000"
 preserveAspectRatio="xMidYMid meet">
<g transform="translate(0.000000,180.000000) scale(0.100000,-0.100000)"
fill="#000000" stroke="none">
<path d="M778 1490 c-331 -8 -309 30 -306 -535 3 -472 -1 -447 80 -494 36 -20
49 -21 348 -21 334 0 347 2 392 54 46 52 48 69 48 393 l0 308 -147 143 c-145
140 -173 164 -190 160 -4 -1 -106 -5 -225 -8z m172 -183 c0 -146 42 -187 193
-187 l88 0 -3 -275 c-3 -232 -5 -277 -18 -285 -9 -6 -143 -10 -312 -10 -297 0
-297 0 -313 23 -13 19 -15 70 -15 388 1 201 3 375 6 386 9 35 42 42 212 42
l162 1 0 -83z m162 -34 c37 -36 35 -43 -11 -43 -38 0 -39 1 -35 33 1 17 3 33
3 35 2 8 18 -1 43 -25z"/>
<path d="M702 1058 c-23 -23 -13 -61 28 -103 l40 -41 -40 -39 c-58 -56 -53
-115 10 -115 32 0 160 125 160 157 0 13 -26 46 -70 87 -70 66 -102 80 -128 54z"/>
<path d="M917 1052 c-44 -49 -6 -82 94 -82 82 0 99 9 99 52 0 37 -24 48 -108
48 -54 0 -72 -4 -85 -18z"/>
</g>
</svg>
